<svg aria-hidden="true" style="width:0;height:0;position:absolute;overflow:hidden" xmlns="http://www.w3.org/2000/svg"><defs><symbol id="icon-small-indicator" viewBox="0 0 192 32"><path fill="#d9d9d9" style="fill:var(--color1,#d9d9d9)" d="M16 0h160c8.837 0 16 7.163 16 16s-7.163 16-16 16H16C7.163 32 0 24.837 0 16S7.163 0 16 0z"/></symbol><symbol id="icon-big-indicator" viewBox="0 0 320 32"><path fill="#797979" style="fill:var(--color2,#797979)" d="M16 0h288c8.837 0 16 7.163 16 16s-7.163 16-16 16H16C7.163 32 0 24.837 0 16S7.163 0 16 0z"/></symbol><symbol id="icon-left-arrow" viewBox="0 0 16 32"><path stroke-width=".314" d="M16 .314.314 16 16 31.686"/></symbol><symbol id="icon-right-arrow" viewBox="0 0 16 32"><path stroke-width=".314" d="M.314.314 16 16 .314 31.686"/></symbol></defs></svg>