<svg aria-hidden="true" style="width:0;height:0;position:absolute;overflow:hidden" xmlns="http://www.w3.org/2000/svg"><defs><symbol id="icon-small-indicator" viewBox="0 0 192 32"><path fill="#d9d9d9" style="fill:var(--color1,#d9d9d9)" d="M16 0h160c8.837 0 16 7.163 16 16s-7.163 16-16 16H16C7.163 32 0 24.837 0 16S7.163 0 16 0z"/></symbol><symbol id="icon-big-indicator" viewBox="0 0 320 32"><path fill="#797979" style="fill:var(--color2,#797979)" d="M16 0h288c8.837 0 16 7.163 16 16s-7.163 16-16 16H16C7.163 32 0 24.837 0 16S7.163 0 16 0z"/></symbol><symbol id="icon-left-arrow" viewBox="0 0 16 32"><path stroke-width=".314" d="M16 .314.314 16 16 31.686"/></symbol><symbol id="icon-right-arrow" viewBox="0 0 16 32"><path stroke-width=".314" d="M.314.314 16 16 .314 31.686"/></symbol><symbol id="icon-search" viewBox="0 0 32 32"><path stroke-width="4" d="M24.087 13.043c0 6.099-4.944 11.043-11.043 11.043S2.001 19.142 2.001 13.043C2.001 6.944 6.945 2 13.044 2s11.043 4.944 11.043 11.043z"/><path d="M28.586 31.414a2 2 0 1 0 2.828-2.828l-2.828 2.828zm-5.65-11.306-1.414-1.414-2.828 2.828 1.414 1.414 2.828-2.828zm8.478 8.478-8.478-8.478-2.828 2.828 8.478 8.478 2.828-2.828z"/></symbol></defs></svg>